<svg width="61" height="62" viewBox="0 0 61 62" fill="none" xmlns="http://www.w3.org/2000/svg">
<path opacity="0.4" d="M50.6743 21.5577V46.0461C50.6743 53.581 46.1785 56.0926 40.6278 56.0926H20.5348C14.9841 56.0926 10.4883 53.581 10.4883 46.0461V21.5577C10.4883 13.395 14.9841 11.5112 20.5348 11.5112C20.5348 13.0684 21.1626 14.4749 22.1924 15.5047C23.2222 16.5345 24.6287 17.1624 26.186 17.1624H34.9767C38.0911 17.1624 40.6278 14.6256 40.6278 11.5112C46.1785 11.5112 50.6743 13.395 50.6743 21.5577Z" fill="#1C8D55"/>
<path d="M40.6277 11.5115C40.6277 14.6259 38.0909 17.1627 34.9765 17.1627H26.1858C24.6286 17.1627 23.222 16.5348 22.1923 15.505C21.1625 14.4752 20.5347 13.0687 20.5347 11.5115C20.5347 8.3971 23.0714 5.86035 26.1858 5.86035H34.9765C36.5337 5.86035 37.9403 6.48827 38.9701 7.51804C39.9999 8.5478 40.6277 9.95431 40.6277 11.5115Z" fill="#1C8D55"/>
<path d="M30.5811 35.3719H20.5346C19.5048 35.3719 18.6509 34.518 18.6509 33.4882C18.6509 32.4584 19.5048 31.6045 20.5346 31.6045H30.5811C31.6109 31.6045 32.4648 32.4584 32.4648 33.4882C32.4648 34.518 31.6109 35.3719 30.5811 35.3719Z" fill="#1C8D55"/>
<path d="M40.6276 45.4183H20.5346C19.5048 45.4183 18.6509 44.5644 18.6509 43.5346C18.6509 42.5048 19.5048 41.6509 20.5346 41.6509H40.6276C41.6574 41.6509 42.5113 42.5048 42.5113 43.5346C42.5113 44.5644 41.6574 45.4183 40.6276 45.4183Z" fill="#1C8D55"/>
</svg>
