<svg width="61" height="61" viewBox="0 0 61 61" fill="none" xmlns="http://www.w3.org/2000/svg">
<path d="M40.628 57.5578H20.535C12.9499 57.5578 8.60474 53.2127 8.60474 45.6276V21.1392C8.60474 13.2276 12.6233 9.20898 20.535 9.20898C21.5647 9.20898 22.4187 10.0629 22.4187 11.0927C22.4187 12.0974 22.8206 13.0518 23.5238 13.755C24.2271 14.4583 25.1815 14.8601 26.1861 14.8601H34.9768C37.0615 14.8601 38.7443 13.1774 38.7443 11.0927C38.7443 10.0629 39.5982 9.20898 40.628 9.20898C48.5396 9.20898 52.5582 13.2276 52.5582 21.1392V45.6276C52.5582 53.2127 48.2131 57.5578 40.628 57.5578ZM18.9023 13.0267C14.934 13.3532 12.3722 15.1364 12.3722 21.1392V45.6276C12.3722 51.2034 14.9592 53.7904 20.535 53.7904H40.628C46.2038 53.7904 48.7908 51.2034 48.7908 45.6276V21.1392C48.7908 15.1364 46.229 13.3783 42.2606 13.0267C41.4067 16.2416 38.468 18.6276 34.9768 18.6276H26.1861C24.1768 18.6276 22.2931 17.849 20.8615 16.4173C19.9071 15.4629 19.254 14.3076 18.9023 13.0267Z" fill="#68696F"/>
<path d="M34.9767 18.6279H26.186C24.1767 18.6279 22.293 17.8493 20.8614 16.4176C19.4297 14.986 18.6511 13.1023 18.6511 11.093C18.6511 6.9488 22.0418 3.55811 26.186 3.55811H34.9767C36.986 3.55811 38.8697 4.33672 40.3013 5.76835C41.733 7.19998 42.5116 9.08369 42.5116 11.093C42.5116 15.2372 39.1209 18.6279 34.9767 18.6279ZM26.186 7.32555C24.1014 7.32555 22.4186 9.00834 22.4186 11.093C22.4186 12.0976 22.8204 13.0521 23.5237 13.7553C24.2269 14.4586 25.1814 14.8604 26.186 14.8604H34.9767C37.0614 14.8604 38.7441 13.1776 38.7441 11.093C38.7441 10.0883 38.3423 9.13393 37.639 8.43067C36.9358 7.72741 35.9814 7.32555 34.9767 7.32555H26.186Z" fill="#68696F"/>
<path d="M30.5814 34.9535H20.5348C19.5051 34.9535 18.6511 34.0995 18.6511 33.0698C18.6511 32.04 19.5051 31.186 20.5348 31.186H30.5814C31.6111 31.186 32.4651 32.04 32.4651 33.0698C32.4651 34.0995 31.6111 34.9535 30.5814 34.9535Z" fill="#68696F"/>
<path d="M40.6279 44.9999H20.5348C19.5051 44.9999 18.6511 44.1459 18.6511 43.1161C18.6511 42.0864 19.5051 41.2324 20.5348 41.2324H40.6279C41.6576 41.2324 42.5116 42.0864 42.5116 43.1161C42.5116 44.1459 41.6576 44.9999 40.6279 44.9999Z" fill="#68696F"/>
</svg>
