<svg width="61" height="61" viewBox="0 0 61 61" fill="none" xmlns="http://www.w3.org/2000/svg">
<path d="M30.8193 27.6501H30.8188H30.8184H30.818H30.8175H30.8171H30.8167H30.8162H30.8158H30.8153H30.8149H30.8145H30.814H30.8136H30.8132H30.8127H30.8123H30.8119H30.8114H30.811H30.8106H30.8101H30.8097H30.8093H30.8089H30.8084H30.808H30.8076H30.8071H30.8067H30.8063H30.8059H30.8054H30.805H30.8046H30.8042H30.8038H30.8033H30.8029H30.8025H30.8021H30.8016H30.8012H30.8008H30.8004H30.8H30.7996H30.7991H30.7987H30.7983H30.7979H30.7975H30.7971H30.7966H30.7962H30.7958H30.7954H30.795H30.7946H30.7942H30.7938H30.7933H30.7929H30.7925H30.7921H30.7917H30.7913H30.7909H30.7905H30.7901H30.7897H30.7893H30.7889H30.7884H30.788H30.7876H30.7872H30.7868H30.7864H30.786H30.7856H30.7852H30.7848H30.7844H30.784H30.7836H30.7832H30.7828H30.7824H30.782H30.7816H30.7812H30.7808H30.7804H30.78H30.7796H30.7792H30.7788H30.7784H30.778H30.7776H30.7772H30.7768H30.7765H30.7761H30.7757H30.7753H30.7749H30.7745H30.7741H30.7737H30.7733H30.7729H30.7725H30.7721H30.7717H30.7714H30.771H30.7706H30.7702H30.7698H30.7694H30.769H30.7686H30.7682H30.7679H30.7675H30.7671H30.7667H30.7663H30.7659H30.7655H30.7652H30.7648H30.7644H30.764H30.7636H30.7632H30.7629H30.7625H30.7621H30.7617H30.7613H30.7609H30.7606H30.7602H30.7598H30.7594H30.759H30.7586H30.7583H30.7579H30.7575H30.7571H30.7567H30.7564H30.756H30.7556H30.7552H30.7549H30.7545H30.7541H30.7537H30.7533H30.753H30.7526H30.7522H30.7518H30.7515H30.7511H30.7507H30.7504C30.5236 27.625 30.2961 27.6265 30.0869 27.646C23.8781 27.3843 19.2658 22.508 19.2658 16.5236C19.2658 10.3807 24.2745 5.372 30.4174 5.372C36.5592 5.372 41.5672 10.3788 41.5691 16.5202C41.5459 22.5642 36.8303 27.4423 30.8631 27.6501H30.863H30.8629H30.8627H30.8626H30.8624H30.8623H30.8621H30.862H30.8618H30.8617H30.8615H30.8614H30.8612H30.8611H30.8609H30.8608H30.8606H30.8605H30.8603H30.8602H30.8601H30.8599H30.8598H30.8596H30.8595H30.8593H30.8592H30.859H30.8589H30.8587H30.8586H30.8584H30.8583H30.8581H30.858H30.8578H30.8577H30.8576H30.8574H30.8573H30.8571H30.857H30.8568H30.8567H30.8565H30.8564H30.8562H30.8561H30.8559H30.8558H30.8556H30.8555H30.8553H30.8552H30.8551H30.8549H30.8548H30.8546H30.8545H30.8543H30.8542H30.854H30.8539H30.8537H30.8536H30.8534H30.8533H30.8531H30.853H30.8528H30.8527H30.8525H30.8524H30.8523H30.8521H30.852H30.8518H30.8517H30.8515H30.8514H30.8512H30.8511H30.8509H30.8508H30.8506H30.8505H30.8503H30.8502H30.85H30.8499H30.8498H30.8496H30.8495H30.8493H30.8492H30.849H30.8489H30.8487H30.8486H30.8484H30.8483H30.8481H30.848H30.8478H30.8477H30.8475H30.8474H30.8472H30.8471H30.847H30.8468H30.8467H30.8465H30.8464H30.8462H30.8461H30.8459H30.8458H30.8456H30.8455H30.8453H30.8452H30.845H30.8449H30.8447H30.8446H30.8445H30.8443H30.8442H30.844H30.8439H30.8437H30.8436H30.8434H30.8433H30.8431H30.843H30.8428H30.8427H30.8425H30.8424H30.8422H30.8421H30.842H30.8418H30.8417H30.8415H30.8414H30.8412H30.8411H30.8409H30.8408H30.8406H30.8405H30.8403H30.8402H30.84H30.8399H30.8397H30.8396H30.8395H30.8393H30.8392H30.839H30.8389H30.8387H30.8386H30.8384H30.8383H30.8381H30.838H30.8378H30.8377H30.8375H30.8374H30.8372H30.8371H30.8369H30.8368H30.8367H30.8365H30.8364H30.8362H30.8361H30.8359H30.8358H30.8356H30.8355H30.8353H30.8352H30.835H30.8349H30.8347H30.8346H30.8344H30.8343H30.8342H30.834H30.8339H30.8337H30.8336H30.8334H30.8333H30.8331H30.833H30.8328H30.8327H30.8325H30.8324H30.8322H30.8321H30.8319H30.8318H30.8317H30.8315H30.8314H30.8312H30.8311H30.8309H30.8308H30.8306H30.8305H30.8303H30.8302H30.83H30.8299H30.8297H30.8296H30.8294H30.8293H30.8291H30.829H30.8289H30.8287H30.8286H30.8284H30.8283H30.8281H30.828H30.8278H30.8277H30.8275H30.8274H30.8272H30.8271H30.8269H30.8268H30.8266H30.8265H30.8264H30.8262H30.8261H30.8259H30.8258H30.8256H30.8255H30.8253H30.8252H30.825H30.8249H30.8247H30.8246H30.8244H30.8243H30.8241H30.824H30.8239H30.8237H30.8236H30.8234H30.8233H30.8231H30.823H30.8228H30.8227H30.8225H30.8224H30.8222H30.8221H30.8219H30.8218H30.8216H30.8215H30.8213H30.8212H30.8211H30.8209H30.8208H30.8206H30.8205H30.8203H30.8202H30.82H30.8199H30.8197H30.8196H30.8194H30.8193Z" stroke="#696969" stroke-width="3.76744"/>
<path d="M18.2813 51.6542L18.2813 51.6542L18.2712 51.6475C15.1801 49.6016 13.7153 46.9724 13.7153 44.302C13.7153 41.6283 15.1837 38.9732 18.276 36.9032C21.6723 34.6514 26.2239 33.4706 30.8634 33.4706C35.5049 33.4706 40.0425 34.6523 43.4115 36.9021L43.4127 36.9029C46.4896 38.9541 47.9739 41.5872 47.9739 44.2518C47.9739 46.9259 46.505 49.5814 43.4116 51.6517C40.0147 53.9159 35.4757 55.102 30.8446 55.102C26.2094 55.102 21.6486 53.9141 18.2813 51.6542Z" stroke="#696969" stroke-width="3.76744"/>
</svg>
