<svg width="61" height="62" viewBox="0 0 61 62" fill="none" xmlns="http://www.w3.org/2000/svg">
<g clip-path="url(#clip0_211_1984)">
<path d="M30.819 30.0221C30.7437 30.0221 30.6935 30.0221 30.6181 30.0221C30.4925 29.997 30.3167 29.997 30.166 30.0221C22.8823 29.7961 17.3818 24.0696 17.3818 17.0119C17.3818 9.82866 23.2339 3.97656 30.4172 3.97656C37.6004 3.97656 43.4525 9.82866 43.4525 17.0119C43.4274 24.0696 37.9018 29.7961 30.8944 30.0221C30.8693 30.0221 30.8442 30.0221 30.819 30.0221Z" fill="#1C8D55"/>
<path d="M30.8443 57.474C25.9215 57.474 20.9736 56.2182 17.2313 53.7066C13.7401 51.3959 11.8313 48.2312 11.8313 44.7903C11.8313 41.3494 13.7401 38.1596 17.2313 35.8238C24.7662 30.8257 36.9727 30.8257 44.4573 35.8238C47.9234 38.1345 49.8573 41.2991 49.8573 44.7401C49.8573 48.181 47.9485 51.3708 44.4573 53.7066C40.6899 56.2182 35.7671 57.474 30.8443 57.474Z" fill="#1C8D55"/>
</g>
<defs>
<clipPath id="clip0_211_1984">
<rect width="60.2791" height="60.2791" fill="white" transform="translate(0.278809 0.836914)"/>
</clipPath>
</defs>
</svg>
